<svg width="20" height="31" viewBox="0 0 20 31" fill="none" xmlns="http://www.w3.org/2000/svg">
<path fill-rule="evenodd" clip-rule="evenodd" d="M10 0.303223C15.5244 0.303223 20 4.94765 20 10.6768C20 18.4931 9.97711 30.3032 9.97711 30.3032C9.97711 30.3032 0 18.5744 0 10.6768C0 4.94607 4.47564 0.303223 10 0.303223ZM14.9888 13.803C15.6481 12.8162 15.9999 11.6561 15.9998 10.4694C15.9995 8.87823 15.3673 7.3523 14.2421 6.22721C13.1169 5.10212 11.591 4.47 9.99978 4.46988C8.81307 4.46988 7.65302 4.82178 6.66631 5.48109C5.67961 6.1404 4.91057 7.0775 4.45646 8.17388C4.00235 9.27027 3.88356 10.4767 4.1151 11.6406C4.34665 12.8045 4.91814 13.8736 5.75731 14.7127C6.59647 15.5518 7.66561 16.1232 8.82952 16.3546C9.99344 16.5861 11.1999 16.4672 12.2962 16.013C13.3926 15.5588 14.3296 14.7897 14.9888 13.803Z" fill="black"/>
</svg>
